<svg id="Layer_1" data-name="Layer 1" xmlns="http://www.w3.org/2000/svg" viewBox="0 0 400 300" width="406" height="306" class="illustration styles_illustrationTablet__1DWOa"><title>_</title><ellipse cx="200" cy="247.44" rx="147.83" ry="13.21" fill="#e6e6e6" opacity="0.45"></ellipse><path d="M267.11,233.78s-3.17,3.13-6.59,1.65-5.92,1.44-3.4,3.91,12.07,2.58,12.07,2.58l2.8-6.48Z" fill="#00bf6f"></path><path d="M320.33,232.34s1.56,4.26-1,7-1,6.32,2.16,4.79,6.81-10.8,6.81-10.8l-4.64-5.18Z" fill="#00bf6f"></path><path d="M328.82,152.26s3.34,13.91-2.47,20.75-14.71,39.25,0,55.46l-5.82,5.76s-25.46-13.69-18.2-63l-18.18-19Z" fill="#24285b"></path><path d="M284.15,152.26l-18.66,82,9.33,1.44s18.67-56.18,31-67.7Z" fill="#24285b"></path><path d="M279.81,80.19s-19.46,8.3-16.48,38.7l19-1.63Z" fill="#00bf6f"></path><path d="M279.81,80.19s-19.46,8.3-16.48,38.7l19-1.63Z" fill="#fff" opacity="0.36"></path><polygon points="300.07 54.15 305.47 73.17 294.77 75.4 295.14 60.66 300.07 54.15" fill="#f4a28c"></polygon><path d="M294.92,63.88a7.14,7.14,0,0,0,3.26-2.51s.27,3.61-3.25,7.63Z" fill="#ce8172" opacity="0.31"></path><path d="M305.47,73.17l-6.35,1.32s-29,3.13-30.21,19.52,15.22,58.25,15.22,58.25h44S363.36,68.84,305.47,73.17Z" fill="#00bf6f"></path><path d="M289,54.7s.54,6,2.23,9.77a3,3,0,0,0,4,1.51,6.69,6.69,0,0,0,4.27-5.88l.86-5.5A5.44,5.44,0,0,0,297,49.31C293.24,47.5,288.48,51.06,289,54.7Z" fill="#f4a28c"></path><path d="M318.46,80.81s-15,8.74-11.55,28.51,9.3,26.58-3.11,23.81-17.51-9-17.51-9-8.93,7.28,0,12.81,21,5.51,23,15.3h18.87s1.53-4.29,3.55-9.69S318.46,80.81,318.46,80.81Z" opacity="0.09"></path><path d="M290.51,54.69a24.08,24.08,0,0,0,5.4-1.4,5,5,0,0,0,1,5.44,4.1,4.1,0,0,0,5.16.74l-1.46-7.61a6.15,6.15,0,0,0-4-4.85,22.17,22.17,0,0,0-2.77-.8c-2.39-.5-5.78.46-7.1,2.59A4.13,4.13,0,0,0,288,54.49,4.29,4.29,0,0,0,290.51,54.69Z" fill="#24285b"></path><path d="M296.21,58.67s-.36-2.3,1.39-2.43,2.29,3.19,0,3.91Z" fill="#f4a28c"></path><circle cx="257.44" cy="114.02" r="44.59" opacity="0.08"></circle><circle cx="257.44" cy="114.02" r="44.59" fill="#ffd200"></circle><g opacity="0.08"><circle cx="256.71" cy="104.67" r="44.59"></circle></g><circle cx="257.44" cy="114.02" r="44.59" opacity="0.08"></circle><circle cx="256.71" cy="104.67" r="44.59" fill="#ffd200"></circle><path d="M259.76,81.68c1.25.11,1.6.57,1.5,1.83L261,86.19c5,1.12,7.66,3.87,9.43,8.42.55,1.37.22,2-1.31,2.59l-2.78,1c-1.3.5-1.88.18-2.49-1.19-1.24-3-2.93-4.48-6.65-4.79-4.64-.38-6.88.82-7.14,3.93-.17,2,1.59,3.43,3.47,4a30.47,30.47,0,0,0,3.89.93,25.56,25.56,0,0,1,7.15,2,10.09,10.09,0,0,1,3.08,2A10.62,10.62,0,0,1,270,113c-.49,6-4.81,9.67-11.95,10.13l-.23,2.84c-.1,1.26-.52,1.66-1.78,1.56l-3-.25c-1.25-.1-1.65-.57-1.55-1.83l.23-2.79c-5.41-1.16-8.84-4.24-10.24-9.31-.34-1.24.16-2,1.46-2.41l2.76-.77c1.41-.37,2,0,2.47,1.42q1.42,4.74,7,5.19c5,.42,7.67-1,7.94-4.19A3.36,3.36,0,0,0,261,109a18.8,18.8,0,0,0-5.33-1.48,24.32,24.32,0,0,1-7.19-2.19,10.25,10.25,0,0,1-3-2.06,10,10,0,0,1-2.35-7.67c.49-5.91,4.53-9.54,11.6-9.89l.22-2.68c.1-1.26.58-1.66,1.83-1.55Z" fill="#fff"></path><path d="M341.67,115.76s2.47,25.4-10,26.81c-9.41,1.07-24.5-4.24-33.72-6.87-4-1.14-5.93-1.67-9-4.47-3.67-3.36-8.77-5.75-4.81-8.94,7-5.67,12,4,12,4a78.18,78.18,0,0,0,18.06,3,7.38,7.38,0,0,0,7.33-9.28l-2.33-8.75S335.74,95.83,341.67,115.76Z" fill="#f4a28c"></path><path d="M289.52,58.47l-1.24,2.58a1,1,0,0,0,.86,1.39l2.34,0Z" fill="#f4a28c"></path><path d="M328.71,78.82c6.44,5,16.23,16,16,36.74l-26.64,1.7s-7.7-22.8.35-36.45A6.94,6.94,0,0,1,328.71,78.82Z" fill="#00bf6f"></path><path d="M328.71,78.82c6.44,5,16.23,16,16,36.74l-26.64,1.7s-7.7-22.8.35-36.45A6.94,6.94,0,0,1,328.71,78.82Z" fill="#fff" opacity="0.36"></path><path d="M216.2,111a6.05,6.05,0,0,1,1.5,3.66,3.55,3.55,0,0,1-.39,2.11,3.14,3.14,0,0,1-.93.92c-1.45,1-3.68,1.16-4.84-.18a4.41,4.41,0,0,1-.87-2.85c0-1.2-.14-3.57.82-4.49C212.78,108.9,215.2,109.89,216.2,111Z" fill="#f4a28c"></path><path d="M107.9,56.49S102,52,97.75,55.5s-.67,16.9-10.49,14.23c0,0,10.9,8.24,17.61-6.32Z" fill="#24285b"></path><path d="M103.81,66s-3.86-.37-2.51-5.68,5.7-5.31,7-4Z" fill="#00bf6f"></path><path d="M115.15,62.59a28.29,28.29,0,0,1-1.46,7.47,2.3,2.3,0,0,1-3,1.24,5.08,5.08,0,0,1-3.38-4.36l-.78-4.16a4.11,4.11,0,0,1,2.43-4.09C111.76,57.23,115.46,59.81,115.15,62.59Z" fill="#f4a28c"></path><polygon points="105.67 65.15 103.36 79.99 111.63 80.68 110.03 69.89 105.67 65.15" fill="#f4a28c"></polygon><path d="M114.84,65.47l1,1.93a.73.73,0,0,1-.62,1.07l-1.79.07Z" fill="#f4a28c"></path><path d="M110.08,70.19a5.63,5.63,0,0,1-2.59-1.51s-.8,3.19,3.05,4.61Z" fill="#ce8172" opacity="0.31"></path><path d="M106,65.21s.22-1.75-1.12-1.8-1.66,2.47.09,3Z" fill="#f4a28c"></path><path d="M114.23,62.24a13.09,13.09,0,0,1-4.38-.31s-1.28,5-5.4,6c0,0-3.3-7.84,1.59-10.46,4.09-2.19,7.15-4.18,10.18-1A3.43,3.43,0,0,1,114.23,62.24Z" fill="#24285b"></path><path d="M124,124.4s1.69,31.61,23.19,32.75,32.12-41.76,32.12-41.76,3.46-4.45-.32-7.14c0,0,2.24-6.77,0-7s-4.56,11.65-4.56,11.65-11.44,22.39-21.72,24.55-3.27-32.32-27.32-47.92S124,124.4,124,124.4Z" fill="#f4a28c"></path><path d="M109.74,64.61s-.06-2-1.71-1.84-1.78,2.59.2,3.66Z" fill="#f4a28c"></path><path d="M103.36,80l8.27.69S157.07,100,133,131.24a16.94,16.94,0,0,0-3.56,9l-1.48,18.57-33.41,1.51S43.16,93.51,103.36,80Z" fill="#00bf6f"></path><polygon points="131.68 184.47 135.16 239.14 131.67 240.34 118.05 189.13 131.68 184.47" fill="#f4a28c"></polygon><path d="M104.37,97.07s10,13.74-2.21,27.73-4.25,25.34,9.93,15.5,17.08,2,17.08,2l-.53,7.55-22.73.78-25.17,1.23-9.81-20.6Z" opacity="0.08"></path><path d="M135,238.34s2.27,2.44,4.88,2.09,3.31,3.34-.95,3.3a23,23,0,0,1-3.94-.35,6.85,6.85,0,0,0-3.55.42,1.18,1.18,0,0,1-1.25-.38c-1.31-1.31,1.37-4.8,1.37-4.8Z" fill="#00bf6f"></path><polygon points="86.05 186.41 84.77 241.18 88.3 242.23 99.86 190.52 86.05 186.41" fill="#f4a28c"></polygon><path d="M84.86,240.38s-2.17,2.52-4.79,2.28-3.17,3.47,1.08,3.26a23.68,23.68,0,0,0,3.93-.51,7,7,0,0,1,3.56.27,1.13,1.13,0,0,0,1.23-.43c1.26-1.36-1.56-4.73-1.56-4.73Z" fill="#00bf6f"></path><polygon points="128.64 149.87 140.5 205.69 116.16 206.79 105.88 207.25 76.45 209.22 86.73 151.76 128.64 149.87" fill="#24285b"></polygon><circle cx="162.87" cy="136.36" r="44.59" opacity="0.08"></circle><circle cx="162.87" cy="136.36" r="44.59" fill="#ffd200"></circle><g opacity="0.08"><circle cx="160.53" cy="127.29" r="44.59"></circle></g><circle cx="162.87" cy="136.36" r="44.59" opacity="0.08"></circle><circle cx="160.53" cy="127.29" r="44.59" fill="#ffd200"></circle><path d="M169.43,109.76l1.88-4.12a1.34,1.34,0,0,0-.53-1.73,17.37,17.37,0,0,0-6.06-2.07,18.37,18.37,0,0,0-15.29,4.87c-4.36,3.85-6.12,9-6.37,14.65-.08,1.84-.07,1.84-1.89,2.34L137,124.82a.88.88,0,0,0-.63,1.08l.89,3.29a.87.87,0,0,0,1.08.62l5.38-1.44.7,2.57L139,132.38a.88.88,0,0,0-.62,1.09l.88,3.3a.89.89,0,0,0,1.09.62l5.94-1.6c4.33,7.79,10.49,12.34,19.68,11.39A17.83,17.83,0,0,0,180.47,138a1.8,1.8,0,0,0-.69-2.47l-3.15-1.74a1.78,1.78,0,0,0-2.35.59,11.32,11.32,0,0,1-4.63,4.2,10.66,10.66,0,0,1-8.41.54,12.48,12.48,0,0,1-6.34-5.67l14.67-3.94a1.39,1.39,0,0,0,1-1.69l-.64-2.38a1.37,1.37,0,0,0-1.69-1l-15.35,4.13-.69-2.56,15.35-4.13a1.38,1.38,0,0,0,1-1.68l-.63-2.33a1.38,1.38,0,0,0-1.68-1l-14.59,3.93c.18-4.1,1.45-7.6,4.86-9.92,3.65-2.48,7.38-2.44,11.14-.55A1.35,1.35,0,0,0,169.43,109.76Z" fill="#fff"></path><path d="M85,88c7.73-6.15,19.45-.8,19.38,9.08-.09,12.08-13.16,25.58-17.27,33.34-2.27,4.29-5.3,9.71-2.75,13.09,8.26,11,36.34-8.39,36.34-8.39s1.9-5.75,5.58-4.66c3.52,1.05,1.57,8.08-2.64,9.22v0s-51.13,46.68-58.1,5C59.79,110.3,74.53,96.29,85,88Z" fill="#f4a28c"></path><path d="M100.17,80.78s-1.3-3.49,5.22-4.53,11.89,1.51,10,6.25C115.34,82.5,110.57,86.66,100.17,80.78Z" fill="#00bf6f"></path><path d="M100.17,80.78s-1.3-3.49,5.22-4.53,11.89,1.51,10,6.25C115.34,82.5,110.57,86.66,100.17,80.78Z" fill="#fff" opacity="0.46"></path><path d="M237,55.51s-25.87-11.28-46.64,3.21L197,68.29l-30.68-4.15,9.5-24.79,6.63,8.43S216.94,33,237,55.51Z" fill="#e6e6e6"></path><path d="M169.78,186.67s25.87,11.27,46.64-3.22l-6.64-9.57L240.47,178,231,202.83l-6.64-8.44S189.87,209.13,169.78,186.67Z" fill="#e6e6e6"></path></svg>