<?xml version="1.0" encoding="UTF-8" standalone="no"?>
<!-- Created with Inkscape (http://www.inkscape.org/) -->

<svg
   xmlns:dc="http://purl.org/dc/elements/1.1/"
   xmlns:cc="http://creativecommons.org/ns#"
   xmlns:rdf="http://www.w3.org/1999/02/22-rdf-syntax-ns#"
   xmlns:svg="http://www.w3.org/2000/svg"
   xmlns="http://www.w3.org/2000/svg"
   xmlns:sodipodi="http://sodipodi.sourceforge.net/DTD/sodipodi-0.dtd"
   xmlns:inkscape="http://www.inkscape.org/namespaces/inkscape"
   width="1223.9327mm"
   height="271.76074mm"
   viewBox="0 0 1223.9327 271.76074"
   version="1.1"
   id="svg1813"
   inkscape:version="0.92.5 (2060ec1f9f, 2020-04-08)"
   sodipodi:docname="fluentax_logo_white.svg">
  <defs
     id="defs1807" />
  <sodipodi:namedview
     id="base"
     pagecolor="#ffffff"
     bordercolor="#666666"
     borderopacity="1.0"
     inkscape:pageopacity="0.0"
     inkscape:pageshadow="2"
     inkscape:zoom="0.12374369"
     inkscape:cx="1054.258"
     inkscape:cy="123.26561"
     inkscape:document-units="mm"
     inkscape:current-layer="layer1"
     showgrid="false"
     inkscape:window-width="1920"
     inkscape:window-height="1017"
     inkscape:window-x="-8"
     inkscape:window-y="-8"
     inkscape:window-maximized="1" />
  <metadata
     id="metadata1810">
    <rdf:RDF>
      <cc:Work
         rdf:about="">
        <dc:format>image/svg+xml</dc:format>
        <dc:type
           rdf:resource="http://purl.org/dc/dcmitype/StillImage" />
        <dc:title />
      </cc:Work>
    </rdf:RDF>
  </metadata>
  <g
     inkscape:label="Layer 1"
     inkscape:groupmode="layer"
     id="layer1"
     transform="translate(308.82946,104.97563)">
    <g
       aria-label="S"
       transform="matrix(0,1.3497339,-1.3497339,0,136.559,-4809.9844)"
       style="font-style:normal;font-variant:normal;font-weight:bold;font-stretch:normal;font-size:77.1713562px;line-height:125%;font-family:'Noto Sans';-inkscape-font-specification:'Noto Sans Bold';letter-spacing:0px;word-spacing:0px;display:inline;opacity:1;fill:#ffffff;fill-opacity:1;stroke:none;stroke-width:1.92928398px;stroke-linecap:butt;stroke-linejoin:miter;stroke-opacity:1"
       id="text7122-5-0-6-9-9-3-4-52-4-5-0-74-4-1"
       inkscape:export-xdpi="96"
       inkscape:export-ydpi="96">
      <path
         style="font-style:normal;font-variant:normal;font-weight:normal;font-stretch:normal;font-size:475.69744873px;font-family:'Noto Sans';-inkscape-font-specification:'Noto Sans';fill:#ffffff;fill-opacity:1;stroke-width:1.92928398px"
         d="m 3487.1992,129.28125 c -4.4016,27.65819 1.8641,59.32675 23.8947,78.5459 32.3521,29.67908 78.5218,35.49774 115.1825,58.32854 13.5225,8.20384 24.3641,21.71644 26.2724,37.76033 0.6966,4.44876 0.9236,8.96677 0.752,13.46484 10.7226,4.06698 21.342,9.11337 32.125,12.60156 4.8725,-26.08554 0.3233,-56.05547 -19.666,-74.74414 -22.7051,-21.54748 -53.07,-31.78431 -81.6579,-42.88931 -19.9073,-7.80291 -41.1536,-16.6501 -54.4574,-34.18881 -7.2669,-10.52107 -10.1599,-23.63373 -9.4355,-36.29493 -11.0565,-4.20444 -21.7275,-9.29837 -32.9492,-12.94531 z"
         id="path2676-1-2-0-0-33-4-4"
         inkscape:connector-curvature="0" />
    </g>
    <path
       transform="matrix(12.936114,5.3048646,-5.3048646,12.936114,-2100.7106,-3236.914)"
       style="display:inline;opacity:1;vector-effect:none;fill:none;fill-opacity:1;stroke:#ffffff;stroke-width:1;stroke-linecap:round;stroke-linejoin:round;stroke-miterlimit:4;stroke-dasharray:none;stroke-dashoffset:0;stroke-opacity:1;paint-order:normal"
       inkscape:transform-center-x="-1.5331671e-05"
       inkscape:transform-center-y="8.1881097e-05"
       d="m 211.27771,161.75886 -2.63715,1.52255 -2.63714,-1.52255 0,-3.04512 2.63714,-1.52256 2.63715,1.52256 z"
       id="path2052-4-5-1-8-2" />
    <path
       transform="matrix(12.973773,5.2120887,-5.2120887,12.973773,-1965.6011,-3046.5262)"
       style="display:inline;opacity:1;vector-effect:none;fill:none;fill-opacity:1;stroke:#ffffff;stroke-width:1;stroke-linecap:round;stroke-linejoin:round;stroke-miterlimit:4;stroke-dasharray:none;stroke-dashoffset:0;stroke-opacity:1;paint-order:normal"
       inkscape:transform-center-x="0.00012519336"
       inkscape:transform-center-y="0.00028118174"
       d="m 211.27771,161.75886 -2.63715,1.52255 -2.63714,-1.52255 0,-3.04512 2.63714,-1.52256 2.63715,1.52256 z"
       id="path2052-55-8-8-35-2-1" />
    <g
       aria-label="fluentax"
       style="font-style:normal;font-variant:normal;font-weight:bold;font-stretch:normal;font-size:44.41389847px;line-height:125%;font-family:'Noto Sans';-inkscape-font-specification:'Noto Sans Bold';letter-spacing:0px;word-spacing:0px;display:inline;opacity:1;fill:#ffffff;fill-opacity:1;stroke:none;stroke-width:1.11034763px;stroke-linecap:butt;stroke-linejoin:miter;stroke-opacity:1"
       id="text1048-0-1-7-05-3-5-18-1-8">
      <path
         d="m 109.56333,119.55889 q -11.717667,0 -17.820618,-5.85883 -6.102951,-5.85883 -6.102951,-14.647082 0,-1.952944 0.244118,-3.905889 0.244118,-2.197062 0.976472,-5.370597 L 109.07509,-12.997203 q 0.48824,-2.685299 0.73236,-5.126479 0.48823,-2.441181 0.48823,-4.638243 0,-7.079423 -3.66177,-11.961784 -3.66177,-5.126479 -13.182372,-5.126479 -11.717666,0 -18.797089,8.544131 -6.835306,8.300014 -9.520604,21.4823882 l -0.732354,3.1735345 H 85.883879 L 81.733872,14.099899 H 59.763248 L 37.792624,117.85007 H 10.93964 L 32.910263,14.099899 H 17.042591 l 4.394125,-20.7500333 h 16.11179 l 1.464709,-7.3235417 q 5.126478,-22.947095 20.261797,-35.885352 15.379437,-12.938256 38.326533,-12.938256 21.238265,0 31.002995,9.032368 9.76472,8.788249 9.76472,23.67945 0,5.614715 -1.46471,11.473548 L 115.9104,80.988243 q -0.48824,2.44118 -0.48824,4.150007 0,4.150006 1.95295,7.323541 2.19706,3.173534 7.07942,3.173534 2.19706,0 4.63824,-0.488236 2.44118,-0.488236 4.63824,-0.976472 2.19707,-0.732354 3.66178,-1.22059 1.70882,-0.488236 1.70882,-0.488236 l -1.22059,21.726509 q -0.24412,0.24411 -2.92941,1.22059 -2.44119,0.73235 -6.59119,1.70882 -3.90589,0.97648 -9.03237,1.70883 -4.88236,0.73235 -9.76472,0.73235 z"
         style="font-style:italic;font-variant:normal;font-weight:600;font-stretch:normal;font-size:244.11804199px;font-family:Raleway;-inkscape-font-specification:'Raleway Semi-Bold Italic';fill:#ffffff;fill-opacity:1;stroke-width:1.11034763px"
         id="path2380" />
      <path
         d="m 189.2488,120.29125 q -29.7824,0 -29.7824,-31.735348 0,-9.032367 2.44118,-20.261797 l 16.84414,-78.1177738 h 26.60887 L 189.73703,62.923508 q -1.70882,7.811777 -1.70882,14.647082 0,19.773562 16.84414,19.773562 10.7412,0 21.48239,-7.079424 10.98531,-7.079423 19.28533,-20.505915 l 16.84414,-79.5824818 h 26.85298 L 269.0754,86.114722 q -0.73236,2.197062 -0.73236,3.66177 0,4.638243 5.61472,5.126479 l -4.63824,22.947099 q -3.66178,0.48823 -6.34707,0.73235 -2.6853,0.48824 -4.88236,0.48824 -7.32355,0 -11.47355,-2.92942 -4.15001,-3.17353 -4.15001,-9.27648 0,-1.95295 0.48824,-5.12648 0.48823,-3.173538 1.70882,-9.764725 -10.98531,13.914725 -25.38827,21.238265 -14.40297,7.07943 -30.02652,7.07943 z"
         style="font-style:italic;font-variant:normal;font-weight:600;font-stretch:normal;font-size:244.11804199px;font-family:Raleway;-inkscape-font-specification:'Raleway Semi-Bold Italic';fill:#ffffff;fill-opacity:1;stroke-width:1.11034763px"
         id="path2382" />
      <path
         d="m 351.57204,120.29125 q -12.2059,0 -21.7265,-4.15001 -9.27649,-4.15001 -15.86768,-11.22943 -6.59118,-7.32354 -10.00884,-17.088262 -3.41765,-10.00884 -3.41765,-21.482388 0,-15.623554 5.85883,-29.782401 6.10295,-14.158846 16.60003,-24.90004 10.74119,-10.74119398 25.14416,-17.0882631 14.64708,-6.5911869 31.49123,-6.5911869 19.77356,0 31.49122,9.0323674 11.96179,8.7882495 11.96179,26.1206306 0,40.035359 -71.52659,40.035359 -10.49707,0 -23.67945,-0.732354 v 4.394124 q 0,7.079424 1.70883,13.182375 1.70882,6.102951 5.12648,10.741193 3.41765,4.638243 8.78825,7.323542 5.37059,2.441184 12.69413,2.441184 10.49708,0 20.2618,-5.126483 9.76472,-5.370597 15.37944,-14.402964 l 21.23827,6.591187 q -4.63825,7.323541 -11.47355,13.42649 -6.59119,5.85884 -14.64708,10.25296 -8.0559,4.15001 -17.08827,6.59119 -9.03236,2.44118 -18.30885,2.44118 z M 376.22796,7.7528302 q -8.78825,0 -16.11179,3.1735348 -7.32354,2.929416 -12.93825,8.055895 -5.61472,5.126479 -9.52061,11.961784 -3.90589,6.591187 -6.34707,13.914729 11.22943,0.732354 20.75004,0.732354 12.93825,0 21.7265,-1.464709 8.78825,-1.708826 14.15885,-4.394124 5.61471,-2.929417 7.81178,-6.835305 2.44118,-4.150007 2.44118,-9.032368 0,-8.300013 -5.85884,-12.205902 -5.85883,-3.9058888 -16.11179,-3.9058888 z"
         style="font-style:italic;font-variant:normal;font-weight:600;font-stretch:normal;font-size:244.11804199px;font-family:Raleway;-inkscape-font-specification:'Raleway Semi-Bold Italic';fill:#ffffff;fill-opacity:1;stroke-width:1.11034763px"
         id="path2384" />
      <path
         d="m 456.0355,-9.8236688 h 24.16768 l -5.37059,25.6323948 q 9.5206,-12.9382566 24.16768,-20.2617979 14.64709,-7.5676591 30.75888,-7.5676591 8.05589,0 13.42649,2.1970622 5.3706,2.1970624 8.54413,6.3470691 3.41765,3.90588864 4.88236,9.2764856 1.46471,5.3705971 1.46471,11.9617841 0,5.126479 -0.97647,10.741194 -0.73236,5.614715 -1.95295,11.473548 l -16.35591,77.873658 h -26.85298 l 15.13532,-71.526589 q 0.97647,-4.638243 1.46471,-8.300014 0.48823,-3.905888 0.48823,-7.323541 0,-18.797089 -15.62355,-18.797089 -5.3706,0 -11.22943,2.197062 -5.85883,2.197063 -11.47355,6.347069 -5.61471,3.905889 -10.74119,9.520604 -4.88236,5.370597 -8.0559,11.961784 l -16.35591,75.920714 h -26.85298 z"
         style="font-style:italic;font-variant:normal;font-weight:600;font-stretch:normal;font-size:244.11804199px;font-family:Raleway;-inkscape-font-specification:'Raleway Semi-Bold Italic';fill:#ffffff;fill-opacity:1;stroke-width:1.11034763px"
         id="path2386" />
      <path
         d="m 601.82734,119.31478 q -9.27649,0 -15.37944,-4.39413 -5.85883,-4.63824 -5.85883,-13.91473 0,-2.685296 0.73235,-6.102949 L 600.60675,3.8469415 H 583.7626 l 2.92942,-13.1823742 h 16.60003 l 9.27648,-42.9647753 h 16.60003 l -9.27649,42.9647753 h 27.82946 L 644.79211,3.8469415 H 617.20677 L 599.63028,86.602958 q -0.48824,2.685298 -0.97648,4.150006 -0.24412,1.464709 -0.24412,2.685299 0,5.614715 3.41766,8.055897 3.41765,2.44118 8.30001,2.44118 6.59119,0 12.2059,-2.19706 5.61472,-2.441184 7.32354,-3.417656 l 1.46471,13.426496 q -3.17353,2.19706 -11.47355,4.88236 -8.05589,2.6853 -17.82061,2.6853 z"
         style="font-weight:normal;fill:#ffffff;fill-opacity:1;stroke-width:1.11034763px"
         id="path2388" />
      <path
         d="m 694.99276,120.29125 q -10.7412,0 -19.04121,-4.15001 -8.30001,-4.39412 -14.15885,-11.71767 -5.85883,-7.323536 -9.03236,-16.84414 -2.92942,-9.764722 -2.92942,-20.505916 0,-15.135318 5.85883,-29.294165 5.85884,-14.158846 15.62356,-25.144158 9.76472,-10.9853118 22.45886,-17.576499 12.69414,-6.591187 26.60886,-6.591187 15.37944,0 25.38828,8.5441314 10.00884,8.3000134 14.15885,20.2617976 l 5.85883,-26.6088667 h 16.60003 L 759.92816,96.123561 q -0.48824,1.952945 -0.48824,3.173535 0,3.905884 4.63824,3.905884 l -3.17353,14.64709 q -1.95295,0.24412 -3.66177,0.48823 -1.70883,0.24412 -2.92942,0.24412 -5.61471,-0.48823 -8.54413,-2.92942 -2.6853,-2.68529 -2.6853,-6.8353 0,-1.95294 0.48824,-5.12648 0.73235,-3.17353 2.19706,-10.497075 -9.76472,12.450025 -23.67945,19.773565 -13.67061,7.32354 -27.0971,7.32354 z m 6.8353,-14.64708 q 6.10295,0 13.18238,-2.44119 7.07942,-2.44118 13.42649,-6.591183 6.59119,-4.394124 11.71767,-10.008839 5.37059,-5.858833 7.81177,-12.45002 l 8.0559,-39.303005 q -0.73236,-6.591187 -3.90589,-12.205902 -3.17353,-5.858833 -7.81178,-10.00884 -4.63824,-4.3941247 -10.49707,-6.8353051 -5.85884,-2.6852985 -12.20591,-2.6852985 -10.98531,0 -20.99415,5.614715 -9.76472,5.3705966 -17.33238,14.1588466 -7.32354,8.788249 -11.71766,19.773561 -4.39413,10.985312 -4.39413,21.970624 0,8.544131 2.44118,16.111791 2.44118,7.323541 7.07942,12.938256 4.63825,5.370597 10.98532,8.788249 6.34707,3.17354 14.15884,3.17354 z"
         style="font-weight:normal;fill:#ffffff;fill-opacity:1;stroke-width:1.11034763px"
         id="path2390" />
      <path
         d="m 836.98549,54.623494 -32.4677,-63.9589267 h 17.82062 l 24.90004,49.8000807 0.97647,3.66177 2.6853,-3.417652 46.38243,-50.0441987 h 17.82061 l -59.5648,63.9589267 32.4677,63.226576 h -17.82062 l -24.90004,-49.555965 -1.4647,-3.417653 -2.44119,3.173535 -45.89419,49.800083 h -18.06473 z"
         style="font-weight:normal;fill:#ffffff;fill-opacity:1;stroke-width:1.11034763px"
         id="path2392" />
    </g>
  </g>
</svg>
